<svg width="158" height="229" viewBox="0 0 158 229" fill="none" xmlns="http://www.w3.org/2000/svg">
<path d="M0.76001 228.13V187.97H5.91V228.13H0.76001ZM4.31001 228.13V223.82H16.94C19.66 223.82 21.59 223.24 22.74 222.08C23.89 220.92 24.45 219.31 24.45 217.26V216.13C24.45 214.03 23.87 212.41 22.71 211.26C21.55 210.1 19.52 209.53 16.63 209.53H4.34V205.41H16.56C19.14 205.41 20.97 204.85 22.07 203.73C23.17 202.61 23.72 201.05 23.72 199.07V198.5C23.72 196.53 23.19 195 22.13 193.9C21.07 192.8 19.2 192.25 16.52 192.25H4.2V187.97H16.99C21.27 187.97 24.32 188.82 26.17 190.52C28.02 192.21 28.94 194.6 28.94 197.68V198.31C28.94 200.77 28.35 202.69 27.18 204.1C26 205.5 24.18 206.34 21.71 206.61L21.68 206.8C24.51 207.22 26.56 208.21 27.84 209.76C29.12 211.31 29.76 213.47 29.76 216.23V217.52C29.76 220.85 28.79 223.46 26.86 225.33C24.94 227.21 21.79 228.14 17.43 228.14H4.29001L4.31001 228.13Z" fill="white"/>
<path d="M38.08 227.12C34.76 225.66 32.8 223.27 32.2 219.95C31.6 216.63 32.35 212.58 34.45 207.81L38.18 199.33C40.27 194.57 42.74 191.3 45.6 189.49C48.45 187.69 51.54 187.52 54.85 188.98C58.17 190.44 60.13 192.83 60.73 196.15C61.33 199.47 60.59 203.51 58.49 208.26L54.76 216.74C52.66 221.52 50.18 224.8 47.33 226.6C44.48 228.4 41.39 228.57 38.08 227.11V227.12ZM39.83 223.13C42.05 224.11 44.13 223.92 46.07 222.56C48.01 221.2 49.72 218.83 51.22 215.43L55.13 206.54C56.62 203.15 57.21 200.28 56.9 197.94C56.58 195.61 55.32 193.95 53.1 192.98C50.89 192.01 48.82 192.2 46.89 193.54C44.95 194.89 43.24 197.26 41.75 200.66L37.84 209.55C36.35 212.94 35.76 215.81 36.07 218.16C36.38 220.5 37.64 222.16 39.85 223.13H39.83Z" fill="white"/>
<path d="M65.52 227.68C61.94 226.7 59.58 224.61 58.45 221.4C57.32 218.19 57.44 214.07 58.81 209.04L61.25 200.1C62.62 195.09 64.6 191.49 67.2 189.3C69.8 187.11 72.9 186.51 76.48 187.48C80.06 188.46 82.42 190.55 83.55 193.76C84.68 196.97 84.56 201.08 83.2 206.09L80.76 215.03C79.39 220.06 77.4 223.67 74.8 225.86C72.2 228.05 69.1 228.65 65.52 227.68ZM66.67 223.47C69.07 224.12 71.14 223.64 72.89 222.03C74.64 220.41 76 217.81 76.97 214.23L79.52 204.86C80.5 201.28 80.64 198.36 79.95 196.08C79.26 193.81 77.72 192.35 75.32 191.7C72.94 191.05 70.87 191.53 69.13 193.13C67.38 194.74 66.03 197.34 65.05 200.91L62.5 210.28C61.52 213.86 61.38 216.79 62.06 219.07C62.74 221.35 64.28 222.81 66.66 223.46L66.67 223.47Z" fill="white"/>
<path d="M84.3199 228.13V187.97H89.5099V228.13H84.3199ZM107.76 228.13L93.6799 209.68H89.09V205.53H93.6799L107.57 187.97H113.51L97.6099 207.99L97.5799 206.7L113.92 228.13H107.76Z" fill="white"/>
<path d="M156.8 220.59L116.64 228.89V223.54L146.65 217.69L152.44 216.59V216.03L146.65 214.96L117.68 209.08V201.38L146.65 195.5L152.44 194.43V193.86L146.65 192.73L116.64 186.88V181.6L156.8 189.87V198.11L133.7 202.76L121.98 204.96V205.46L133.7 207.7L156.8 212.29V220.59Z" fill="white"/>
<path d="M116.63 152.05L151.2 135.74V135.37L133.67 135.59H116.64V130.5H156.8V138.23L121.95 154.73V155.11L140.3 154.89H156.8V159.98H116.64V152.06L116.63 152.05Z" fill="white"/>
<path d="M156.8 121H116.64V115.85H156.8V121ZM156.8 117.48H152.4V107.74C152.4 104.18 151.43 101.5 149.49 99.71C147.55 97.91 144.78 97.02 141.17 97.02H132.21C128.59 97.02 125.81 97.92 123.88 99.71C121.95 101.5 120.99 104.18 120.99 107.74V117.51H116.62V107.55C116.62 102.35 117.96 98.42 120.63 95.77C123.31 93.11 127.15 91.78 132.18 91.78H141.2C146.21 91.78 150.05 93.11 152.74 95.77C155.44 98.43 156.78 102.36 156.78 107.55V117.48H156.8Z" fill="white"/>
<path d="M157.55 69.78C157.55 74.85 156.15 78.71 153.36 81.34C150.57 83.97 146.56 85.3 141.34 85.3H132.07C126.87 85.3 122.88 83.98 120.08 81.34C117.28 78.7 115.89 74.84 115.89 69.78C115.89 64.72 117.29 60.85 120.08 58.22C122.87 55.59 126.87 54.26 132.07 54.26H141.34C146.56 54.26 150.56 55.58 153.36 58.22C156.16 60.86 157.55 64.72 157.55 69.78ZM153.18 69.78C153.18 66.38 152.17 63.83 150.15 62.11C148.12 60.39 145.26 59.53 141.55 59.53H131.84C128.13 59.53 125.27 60.39 123.26 62.11C121.25 63.83 120.25 66.38 120.25 69.78C120.25 73.18 121.25 75.7 123.26 77.42C125.28 79.14 128.13 80 131.84 80H141.55C145.26 80 148.12 79.14 150.15 77.42C152.17 75.7 153.18 73.15 153.18 69.78Z" fill="white"/>
<path d="M156.8 41.59L116.64 49.89V44.54L146.65 38.69L152.44 37.59V37.03L146.65 35.96L117.68 30.08V22.38L146.65 16.5L152.44 15.43V14.86L146.65 13.73L116.64 7.88V2.60001L156.8 10.87V19.11L133.7 23.76L121.98 25.96V26.46L133.7 28.7L156.8 33.29V41.59Z" fill="white"/>
<path d="M122.05 173.77C122.05 174.82 121.77 175.6 121.22 176.11C120.66 176.62 119.91 176.88 118.94 176.88H118.78C117.8 176.88 117.03 176.62 116.49 176.11C115.94 175.59 115.67 174.82 115.67 173.77C115.67 172.72 115.94 171.94 116.49 171.41C117.03 170.89 117.8 170.62 118.78 170.62H118.94C119.93 170.62 120.69 170.89 121.24 171.41C121.78 171.94 122.05 172.72 122.05 173.77ZM157.76 176.32H127.09V171.23H157.76V176.32Z" fill="white"/>
<path d="M5.24 183.02V5.23H113V0H0V183.02H5.24Z" fill="white"/>
</svg>
